<svg width="24" height="27" viewBox="0 0 24 27" fill="none" xmlns="http://www.w3.org/2000/svg">
<path d="M23.2222 26V23.2222C23.2222 21.7488 22.6369 20.3357 21.595 19.2939C20.5532 18.252 19.1401 17.6667 17.6667 17.6667H6.55556C5.08213 17.6667 3.66905 18.252 2.62718 19.2939C1.58532 20.3357 1 21.7488 1 23.2222V26" fill="#1A1A1A"/>
<path d="M12.1111 12.1111C15.1794 12.1111 17.6667 9.6238 17.6667 6.55556C17.6667 3.48731 15.1794 1 12.1111 1C9.04286 1 6.55556 3.48731 6.55556 6.55556C6.55556 9.6238 9.04286 12.1111 12.1111 12.1111Z" fill="#1A1A1A"/>
<path d="M23.2222 26V23.2222C23.2222 21.7488 22.6369 20.3357 21.595 19.2939C20.5532 18.252 19.1401 17.6667 17.6667 17.6667H6.55556C5.08213 17.6667 3.66905 18.252 2.62718 19.2939C1.58532 20.3357 1 21.7488 1 23.2222V26M17.6667 6.55556C17.6667 9.6238 15.1794 12.1111 12.1111 12.1111C9.04286 12.1111 6.55556 9.6238 6.55556 6.55556C6.55556 3.48731 9.04286 1 12.1111 1C15.1794 1 17.6667 3.48731 17.6667 6.55556Z" stroke="white" stroke-width="1.5" stroke-linecap="round" stroke-linejoin="round"/>
</svg>
