<svg width="48" height="48" viewBox="0 0 48 48" fill="none" xmlns="http://www.w3.org/2000/svg">
<rect x="0.5" y="0.5" width="47" height="47" fill="#1A1A1A" stroke="#1A1A1A"/>
<path d="M35.2222 37V34.2222C35.2222 32.7488 34.6369 31.3357 33.595 30.2939C32.5532 29.252 31.1401 28.6667 29.6667 28.6667H18.5556C17.0821 28.6667 15.6691 29.252 14.6272 30.2939C13.5853 31.3357 13 32.7488 13 34.2222V37" fill="#1A1A1A"/>
<path d="M24.1111 23.1111C27.1794 23.1111 29.6667 20.6238 29.6667 17.5556C29.6667 14.4873 27.1794 12 24.1111 12C21.0429 12 18.5556 14.4873 18.5556 17.5556C18.5556 20.6238 21.0429 23.1111 24.1111 23.1111Z" fill="#1A1A1A"/>
<path d="M35.2222 37V34.2222C35.2222 32.7488 34.6369 31.3357 33.595 30.2939C32.5532 29.252 31.1401 28.6667 29.6667 28.6667H18.5556C17.0821 28.6667 15.6691 29.252 14.6272 30.2939C13.5853 31.3357 13 32.7488 13 34.2222V37M29.6667 17.5556C29.6667 20.6238 27.1794 23.1111 24.1111 23.1111C21.0429 23.1111 18.5556 20.6238 18.5556 17.5556C18.5556 14.4873 21.0429 12 24.1111 12C27.1794 12 29.6667 14.4873 29.6667 17.5556Z" stroke="white" stroke-width="1.5" stroke-linecap="round" stroke-linejoin="round"/>
</svg>
