<svg width="25" height="25" viewBox="0 0 25 25" fill="none" xmlns="http://www.w3.org/2000/svg">
<path d="M16.3288 6.75627L4.13319 18.9519L3.33571 21.6723L6.00072 20.9018L18.2368 8.66564L16.3288 6.75627ZM18.4096 4.67554L20.3176 6.58355L22.0961 4.80508C22.2225 4.67855 22.2936 4.50697 22.2936 4.32807C22.2936 4.14917 22.2225 3.97759 22.0961 3.85107L21.1407 2.89706C21.0142 2.77058 20.8426 2.69952 20.6637 2.69952C20.4848 2.69952 20.3132 2.77058 20.1867 2.89706L18.4109 4.67554H18.4096ZM23.0501 0.989046L24.0041 1.94305C24.6365 2.57567 24.9918 3.43356 24.9918 4.32807C24.9918 5.22259 24.6365 6.08048 24.0041 6.71309L7.41757 23.3009L1.72321 24.9472C1.4911 25.0141 1.24528 25.0175 1.01142 24.957C0.777554 24.8965 0.564219 24.7743 0.393684 24.6032C0.223149 24.4321 0.101668 24.2184 0.0419224 23.9844C-0.0178227 23.7503 -0.0136411 23.5045 0.0540309 23.2726L1.73805 17.531L18.2814 0.987696C18.914 0.355275 19.7719 0 20.6664 0C21.5609 0 22.4188 0.355275 23.0514 0.987696L23.0501 0.989046Z" fill="black"/>
</svg>
