<svg width="50" height="50" viewBox="0 0 50 50" fill="none" xmlns="http://www.w3.org/2000/svg">
<path d="M0 25C0 11.1929 11.1929 0 25 0H50V50H0V25Z" fill="#1A1A1A"/>
<path d="M19.1695 38.4453C17.3023 38.4453 15.8102 38.1094 14.693 37.4375C13.5758 36.7578 12.7711 35.7656 12.2789 34.4609C11.7945 33.1484 11.5523 31.4883 11.5523 29.4805C11.5523 27.5117 11.8023 25.8906 12.3023 24.6172C12.8102 23.3359 13.6227 22.3711 14.7398 21.7227C15.857 21.0742 17.3336 20.75 19.1695 20.75C21.0055 20.75 22.482 21.0781 23.5992 21.7344C24.7164 22.3828 25.525 23.3477 26.025 24.6289C26.525 25.9023 26.775 27.5156 26.775 29.4688C26.775 31.4844 26.5328 33.1484 26.0484 34.4609C25.5641 35.7656 24.7633 36.7578 23.6461 37.4375C22.5289 38.1094 21.0367 38.4453 19.1695 38.4453ZM19.1695 36.7109C20.6461 36.7109 21.7828 36.4453 22.5797 35.9141C23.3766 35.375 23.9234 34.5898 24.2203 33.5586C24.525 32.5195 24.6773 31.1523 24.6773 29.457C24.6773 27.8086 24.5211 26.4883 24.2086 25.4961C23.9039 24.4961 23.3531 23.7461 22.5562 23.2461C21.7594 22.7461 20.6305 22.4961 19.1695 22.4961C17.693 22.4961 16.5562 22.7539 15.7594 23.2695C14.9625 23.7773 14.4117 24.5352 14.107 25.543C13.8023 26.543 13.65 27.8789 13.65 29.5508C13.65 31.2383 13.8023 32.5938 14.107 33.6172C14.4117 34.6328 14.9625 35.4023 15.7594 35.9258C16.5641 36.4492 17.7008 36.7109 19.1695 36.7109ZM19.1578 39.8516H26.8336V41.4805H19.1578V39.8516ZM32.0766 21.1133H43.3266V22.8945H34.1156V28.3086H41.8617V30.0664H34.1156V38H32.0766V21.1133Z" fill="white"/>
</svg>
